<svg viewBox="0 0 83 42" fill="none" xmlns="http://www.w3.org/2000/svg">
<path d="M13.5243 20.6462C13.5884 20.8139 13.5337 21.0054 13.3822 21.1017C12.9217 21.3946 12.3749 21.6248 11.742 21.7924C11.0123 21.9693 10.2383 22.0577 9.42015 22.0577C7.2973 22.0577 5.64988 21.516 4.47789 20.4324C3.32801 19.3489 2.75307 17.7568 2.75307 15.656V8.72555C2.75307 8.50464 2.57399 8.32555 2.35307 8.32555H0.4C0.179086 8.32555 0 8.14647 0 7.92555V4.74521C0 4.52429 0.179086 4.34521 0.4 4.34521H2.35307C2.57399 4.34521 2.75307 4.16612 2.75307 3.94521V0.4C2.75307 0.179086 2.93216 0 3.15307 0H7.52752C7.74843 0 7.92752 0.179086 7.92752 0.4V3.94521C7.92752 4.16612 8.1066 4.34521 8.32752 4.34521H11.9722C12.1932 4.34521 12.3722 4.52429 12.3722 4.74521V7.92555C12.3722 8.14647 12.1932 8.32555 11.9722 8.32555H8.32752C8.1066 8.32555 7.92752 8.50464 7.92752 8.72555V15.5897C7.92752 16.3415 8.11548 16.9275 8.4914 17.3477C8.88943 17.7457 9.44226 17.9447 10.1499 17.9447C10.7643 17.9447 11.3102 17.82 11.7875 17.5705C12.0249 17.4465 12.3357 17.5331 12.4312 17.7833L13.5243 20.6462Z" fill="#EDBA27"/>
<path d="M19.9796 5.0592C19.9796 5.44785 20.519 5.63842 20.8096 5.38038C21.2851 4.95821 21.8376 4.61315 22.4673 4.34521C23.4244 3.94644 24.5073 3.72745 25.716 3.68823C25.9368 3.68107 26.116 3.8609 26.116 4.08182V8.02628C26.116 8.25928 25.9175 8.44263 25.6851 8.42681C25.3428 8.40353 25.0994 8.39189 24.955 8.39189C23.4735 8.39189 22.3125 8.81204 21.4722 9.65233C20.6319 10.4705 20.2118 11.7088 20.2118 13.3673V21.3924C20.2118 21.6133 20.0327 21.7924 19.8118 21.7924H15.4373C15.2164 21.7924 15.0373 21.6133 15.0373 21.3924V4.34717C15.0373 4.12626 15.2164 3.94717 15.4373 3.94717H19.5796C19.8005 3.94717 19.9796 4.12626 19.9796 4.34717V5.0592Z" fill="#EDBA27"/>
<path d="M34.7933 3.68182C37.5574 3.68182 39.6803 4.34521 41.1619 5.67199C42.6434 6.97666 43.3842 8.95577 43.3842 11.6093V21.3924C43.3842 21.6133 43.2051 21.7924 42.9842 21.7924H38.9415C38.7206 21.7924 38.5415 21.6133 38.5415 21.3924V21.0423C38.5415 20.6346 37.9153 20.4323 37.6074 20.6996C36.5642 21.605 35.0623 22.0577 33.1017 22.0577C31.7307 22.0577 30.5366 21.8256 29.5194 21.3612C28.5243 20.8968 27.7614 20.2555 27.2307 19.4373C26.6999 18.6192 26.4346 17.6904 26.4346 16.6511C26.4346 14.9926 27.0538 13.688 28.2921 12.7371C29.5525 11.7862 31.4874 11.3108 34.0968 11.3108H37.8098C38.0307 11.3108 38.2118 11.1314 38.1946 10.9111C38.1213 9.97721 37.7837 9.24803 37.1815 8.72359C36.496 8.10442 35.4678 7.79484 34.0968 7.79484C33.1459 7.79484 32.2061 7.94963 31.2773 8.25921C30.5489 8.49019 29.9061 8.79254 29.3489 9.16627C29.1395 9.30675 28.8481 9.24428 28.7328 9.01997L27.257 6.14726C27.1658 5.96984 27.2188 5.75158 27.3861 5.64294C28.2977 5.05095 29.3626 4.5852 30.5808 4.2457C31.9518 3.86978 33.356 3.68182 34.7933 3.68182ZM34.3953 18.5749C35.2798 18.5749 36.0648 18.3759 36.7503 17.9779C37.4168 17.5694 37.8952 16.9832 38.1854 16.2192C38.2019 16.1759 38.2098 16.1299 38.2098 16.0836V14.7292C38.2098 14.5083 38.0307 14.3292 37.8098 14.3292H34.6606C32.5378 14.3292 31.4764 15.0258 31.4764 16.4189C31.4764 17.0823 31.7307 17.613 32.2393 18.0111C32.77 18.387 33.4886 18.5749 34.3953 18.5749Z" fill="#EDBA27"/>
<path d="M55.3858 22.0577C53.4841 22.0577 51.7703 21.6708 50.2445 20.8968C48.7408 20.1007 47.5578 19.0061 46.6954 17.613C45.8551 16.2199 45.4349 14.6388 45.4349 12.8698C45.4349 11.1007 45.8551 9.51966 46.6954 8.12654C47.5578 6.73342 48.7408 5.64988 50.2445 4.87592C51.7703 4.07985 53.4841 3.68182 55.3858 3.68182C57.2654 3.68182 58.9017 4.07985 60.2949 4.87592C61.5999 5.5896 62.5759 6.59473 63.2228 7.89131C63.3159 8.07803 63.2379 8.3022 63.054 8.40095L59.7104 10.1971C59.519 10.3 59.2816 10.2301 59.1633 10.0478C58.2465 8.63426 56.9762 7.92752 55.3526 7.92752C54.0037 7.92752 52.887 8.36978 52.0025 9.2543C51.118 10.1388 50.6757 11.344 50.6757 12.8698C50.6757 14.3956 51.118 15.6007 52.0025 16.4853C52.887 17.3698 54.0037 17.812 55.3526 17.812C56.9939 17.812 58.264 17.1078 59.1629 15.6993C59.2812 15.5139 59.5219 15.4425 59.715 15.5478L63.0535 17.3688C63.2374 17.4691 63.3138 17.6949 63.2179 17.8812C62.571 19.1372 61.5966 20.1314 60.2949 20.8636C58.9017 21.6597 57.2654 22.0577 55.3858 22.0577Z" fill="#EDBA27"/>
<path d="M82.1125 12.9361C82.1125 12.9923 82.0888 13.3335 82.0413 13.9598C82.0255 14.1682 81.8516 14.3292 81.6426 14.3292H69.0106C68.755 14.3292 68.564 14.5664 68.6442 14.809C68.9354 15.6906 69.4666 16.4041 70.2378 16.9496C71.1445 17.5909 72.2722 17.9115 73.6211 17.9115C74.5499 17.9115 75.3681 17.7789 76.0757 17.5135C76.6883 17.2722 77.262 16.9217 77.7967 16.4622C77.9669 16.3159 78.2242 16.3224 78.3763 16.4874L80.6087 18.9081C80.7472 19.0582 80.751 19.2895 80.6098 19.4371C78.9389 21.1842 76.5651 22.0577 73.4884 22.0577C71.4762 22.0577 69.6961 21.6708 68.1482 20.8968C66.6002 20.1007 65.4061 19.0061 64.5658 17.613C63.7256 16.2199 63.3054 14.6388 63.3054 12.8698C63.3054 11.1228 63.7145 9.55282 64.5327 8.1597C65.373 6.74447 66.5118 5.64988 67.9491 4.87592C69.4086 4.07985 71.0339 3.68182 72.8251 3.68182C74.572 3.68182 76.1531 4.05774 77.5683 4.80958C78.9835 5.56142 80.0892 6.64496 80.8853 8.0602C81.7034 9.45332 82.1125 11.0786 82.1125 12.9361ZM72.8582 7.59582C71.6862 7.59582 70.7022 7.92752 69.9061 8.59091C69.2188 9.1637 68.7622 9.91784 68.5365 10.8533C68.479 11.0916 68.6678 11.3108 68.9129 11.3108H76.769C77.0146 11.3108 77.2036 11.0908 77.1445 10.8524C76.9179 9.93768 76.4622 9.19492 75.7772 8.62408C74.9811 7.93857 74.0081 7.59582 72.8582 7.59582Z" fill="#EDBA27"/>
<path d="M8.26783 17.5477L8.27338 17.5539L8.27927 17.5598C8.74717 18.0277 9.38426 18.2447 10.1499 18.2447C10.8059 18.2447 11.4006 18.1113 11.9265 17.8364C11.9729 17.8121 12.0276 17.8086 12.0728 17.8228C12.1156 17.8363 12.1399 17.8613 12.151 17.8903L13.2441 20.7532C13.2619 20.7998 13.2419 20.8354 13.2212 20.8486C12.792 21.1216 12.2758 21.3405 11.6683 21.5016C10.9645 21.6719 10.2155 21.7577 9.42015 21.7577C7.34798 21.7577 5.78284 21.2298 4.68256 20.2131C3.6115 19.2032 3.05307 17.7019 3.05307 15.656V8.72555C3.05307 8.33895 2.73967 8.02555 2.35307 8.02555H0.4C0.344771 8.02555 0.3 7.98078 0.3 7.92555V4.74521C0.3 4.68998 0.344771 4.64521 0.4 4.64521H2.35307C2.73967 4.64521 3.05307 4.33181 3.05307 3.94521V0.4C3.05307 0.344772 3.09784 0.3 3.15307 0.3H7.52752C7.58275 0.3 7.62752 0.344771 7.62752 0.4V3.94521C7.62752 4.33181 7.94092 4.64521 8.32752 4.64521H11.9722C12.0275 4.64521 12.0722 4.68998 12.0722 4.74521V7.92555C12.0722 7.98078 12.0275 8.02555 11.9722 8.02555H8.32752C7.94092 8.02555 7.62752 8.33895 7.62752 8.72555V15.5897C7.62752 16.3903 7.82823 17.0564 8.26783 17.5477ZM40.9617 5.89548L40.9636 5.89714C42.3603 7.12706 43.0842 9.01077 43.0842 11.6093V21.3924C43.0842 21.4476 43.0395 21.4924 42.9842 21.4924H38.9415C38.8862 21.4924 38.8415 21.4476 38.8415 21.3924V21.0423C38.8415 20.6635 38.5524 20.4267 38.2888 20.3346C38.0245 20.2423 37.6688 20.249 37.4107 20.4731C36.4412 21.3146 35.02 21.7577 33.1017 21.7577C31.7646 21.7577 30.615 21.5314 29.6449 21.0887C28.6949 20.6451 27.9785 20.039 27.4823 19.2741C26.9853 18.5078 26.7346 17.6365 26.7346 16.6511C26.7346 15.0796 27.3152 13.8659 28.4738 12.9758C29.6579 12.083 31.5144 11.6108 34.0968 11.6108H37.8098C38.1891 11.6108 38.5258 11.2983 38.4936 10.8877C38.4155 9.89102 38.0509 9.08395 37.3806 8.49916C36.6186 7.81205 35.5057 7.49484 34.0968 7.49484C33.1134 7.49484 32.1423 7.6549 31.1846 7.9739C30.4336 8.21222 29.765 8.5259 29.1818 8.91713C29.108 8.96664 29.0257 8.9335 28.9997 8.88288L27.5238 6.01017C27.4997 5.96328 27.5172 5.9155 27.5495 5.89454C28.4316 5.32171 29.4674 4.86749 30.6606 4.53488C32.0053 4.16622 33.3826 3.98182 34.7933 3.98182C37.5124 3.98182 39.5534 4.6343 40.9617 5.89548ZM36.901 18.2373L36.901 18.2374L36.9071 18.2337C37.6329 17.7888 38.1532 17.1487 38.4659 16.3258C38.4961 16.2462 38.5098 16.1637 38.5098 16.0836V14.7292C38.5098 14.3426 38.1964 14.0292 37.8098 14.0292H34.6606C33.5759 14.0292 32.7103 14.2055 32.1078 14.6008C31.4833 15.0107 31.1764 15.6329 31.1764 16.4189C31.1764 17.1716 31.4708 17.7906 32.0544 18.2473L32.06 18.2517L32.0659 18.2559C32.6637 18.6793 33.4503 18.8749 34.3953 18.8749C35.3264 18.8749 36.1646 18.6649 36.901 18.2373ZM50.3818 5.14266L50.3833 5.14189C51.8619 4.37045 53.5272 3.98182 55.3858 3.98182C57.2222 3.98182 58.8055 4.37036 60.146 5.13639L60.146 5.13644L60.1509 5.13913C61.4037 5.82427 62.3355 6.78498 62.9543 8.02524C62.9709 8.0585 62.9614 8.11016 62.9121 8.13667L59.5684 9.93284C59.5246 9.95637 59.4547 9.94568 59.415 9.8845C58.4453 8.3896 57.0824 7.62752 55.3526 7.62752C53.931 7.62752 52.7358 8.0967 51.7904 9.04217C50.8376 9.99487 50.3757 11.283 50.3757 12.8698C50.3757 14.4565 50.8376 15.7447 51.7904 16.6974C52.7358 17.6429 53.931 18.112 55.3526 18.112C57.0985 18.112 58.463 17.3536 59.4158 15.8606C59.4559 15.7978 59.5273 15.7872 59.5713 15.8111L62.9099 17.6322C62.9593 17.6592 62.9681 17.711 62.9512 17.7438C62.3327 18.9446 61.4015 19.897 60.1478 20.6022L60.146 20.6032C58.8055 21.3692 57.2222 21.7577 55.3858 21.7577C53.5269 21.7577 51.8612 21.38 50.3826 20.6305C48.9257 19.8587 47.7841 18.8012 46.9514 17.4566C46.1423 16.1147 45.7349 14.5885 45.7349 12.8698C45.7349 11.151 46.1423 9.6249 46.9514 8.28294C47.7841 6.93838 48.9254 5.89226 50.3818 5.14266ZM76.181 17.7945L76.1856 17.7926C76.8316 17.5382 77.4339 17.1696 77.9922 16.6897C78.0484 16.6414 78.1207 16.6527 78.1558 16.6908L80.3881 19.1114C80.4251 19.1515 80.4188 19.2027 80.393 19.2297C78.7931 20.9025 76.5068 21.7577 73.4884 21.7577C71.5159 21.7577 69.7836 21.3787 68.284 20.6293C66.7827 19.8569 65.632 18.7998 64.8227 17.4581C64.0131 16.1158 63.6054 14.5891 63.6054 12.8698C63.6054 11.1723 64.0022 9.6559 64.7906 8.31287C65.6034 6.94403 66.7024 5.88799 68.0914 5.14006L68.0928 5.13929C69.5048 4.3691 71.0801 3.98182 72.8251 3.98182C74.5274 3.98182 76.0595 4.34773 77.4276 5.07452C78.7914 5.79906 79.8555 6.84136 80.6237 8.2073L80.6266 8.21212C81.4139 9.55265 81.8125 11.1239 81.8125 12.9361L81.8125 12.9387C81.8124 12.9416 81.8122 12.9473 81.8117 12.9566C81.8111 12.9707 81.8101 12.9896 81.8086 13.0138C81.8057 13.062 81.8014 13.1284 81.7954 13.2133C81.7836 13.383 81.7659 13.6242 81.7421 13.9371C81.7382 13.989 81.6949 14.0292 81.6426 14.0292H69.0106C68.5748 14.0292 68.2077 14.444 68.3593 14.9031C68.671 15.8467 69.242 16.6127 70.0646 17.1946C71.0319 17.8788 72.2237 18.2115 73.6211 18.2115C74.5779 18.2115 75.433 18.0749 76.181 17.7945ZM19.6796 5.0592C19.6796 5.41148 19.9262 5.64824 20.1806 5.74332C20.4331 5.83767 20.7637 5.82235 21.0088 5.60471C21.4579 5.20592 21.982 4.87787 22.5837 4.62173C23.5019 4.2393 24.5478 4.02629 25.7257 3.98808C25.7707 3.98662 25.816 4.02391 25.816 4.08182V8.02628C25.816 8.08354 25.7666 8.13167 25.7054 8.12751C25.363 8.10422 25.1106 8.09189 24.955 8.09189C23.4155 8.09189 22.1711 8.53004 21.2615 9.43877C20.3437 10.3334 19.9118 11.6628 19.9118 13.3673V21.3924C19.9118 21.4476 19.867 21.4924 19.8118 21.4924H15.4373C15.3821 21.4924 15.3373 21.4476 15.3373 21.3924V4.34717C15.3373 4.29194 15.3821 4.24717 15.4373 4.24717H19.5796C19.6348 4.24717 19.6796 4.29194 19.6796 4.34717V5.0592ZM72.8582 7.29582C71.6258 7.29582 70.5711 7.64625 69.7141 8.36044C68.9734 8.9777 68.4845 9.78981 68.2449 10.7829C68.1375 11.228 68.4925 11.6108 68.9129 11.6108H76.769C77.1898 11.6108 77.5462 11.2265 77.4357 10.7802C77.1949 9.8081 76.7069 9.00903 75.971 8.3951C75.1155 7.65926 74.0717 7.29582 72.8582 7.29582Z" stroke="url(#paint0_radial_1057_12627)" stroke-opacity="0.06" stroke-width="0.6"/>
<path d="M33.1283 38.2019C32.4803 38.2019 31.8763 38.0979 31.3163 37.8899C30.7643 37.6739 30.2843 37.3699 29.8763 36.9779C29.4683 36.5859 29.1483 36.1259 28.9163 35.5979C28.6923 35.0699 28.5803 34.4899 28.5803 33.8579C28.5803 33.2259 28.6923 32.6459 28.9163 32.1179C29.1483 31.5899 29.4683 31.1299 29.8763 30.7379C30.2923 30.3459 30.7763 30.0459 31.3283 29.8379C31.8803 29.6219 32.4843 29.5139 33.1403 29.5139C33.8683 29.5139 34.5243 29.6419 35.1083 29.8979C35.7003 30.1459 36.1963 30.5139 36.5963 31.0019L35.3483 32.1539C35.0603 31.8259 34.7403 31.5819 34.3883 31.4219C34.0363 31.2539 33.6523 31.1699 33.2363 31.1699C32.8443 31.1699 32.4843 31.2339 32.1563 31.3619C31.8283 31.4899 31.5443 31.6739 31.3043 31.9139C31.0643 32.1539 30.8763 32.4379 30.7403 32.7659C30.6123 33.0939 30.5483 33.4579 30.5483 33.8579C30.5483 34.2579 30.6123 34.6219 30.7403 34.9499C30.8763 35.2779 31.0643 35.5619 31.3043 35.8019C31.5443 36.0419 31.8283 36.2259 32.1563 36.3539C32.4843 36.4819 32.8443 36.5459 33.2363 36.5459C33.6523 36.5459 34.0363 36.4659 34.3883 36.3059C34.7403 36.1379 35.0603 35.8859 35.3483 35.5499L36.5963 36.7019C36.1963 37.1899 35.7003 37.5619 35.1083 37.8179C34.5243 38.0739 33.8643 38.2019 33.1283 38.2019ZM40.6264 38.1539C39.9384 38.1539 39.3264 38.0099 38.7904 37.7219C38.2624 37.4339 37.8424 37.0419 37.5304 36.5459C37.2264 36.0419 37.0744 35.4699 37.0744 34.8299C37.0744 34.1819 37.2264 33.6099 37.5304 33.1139C37.8424 32.6099 38.2624 32.2179 38.7904 31.9379C39.3264 31.6499 39.9384 31.5059 40.6264 31.5059C41.3064 31.5059 41.9144 31.6499 42.4504 31.9379C42.9864 32.2179 43.4064 32.6059 43.7104 33.1019C44.0144 33.5979 44.1664 34.1739 44.1664 34.8299C44.1664 35.4699 44.0144 36.0419 43.7104 36.5459C43.4064 37.0419 42.9864 37.4339 42.4504 37.7219C41.9144 38.0099 41.3064 38.1539 40.6264 38.1539ZM40.6264 36.6179C40.9384 36.6179 41.2184 36.5459 41.4664 36.4019C41.7144 36.2579 41.9104 36.0539 42.0544 35.7899C42.1984 35.5179 42.2704 35.1979 42.2704 34.8299C42.2704 34.4539 42.1984 34.1339 42.0544 33.8699C41.9104 33.6059 41.7144 33.4019 41.4664 33.2579C41.2184 33.1139 40.9384 33.0419 40.6264 33.0419C40.3144 33.0419 40.0344 33.1139 39.7864 33.2579C39.5384 33.4019 39.3384 33.6059 39.1864 33.8699C39.0424 34.1339 38.9704 34.4539 38.9704 34.8299C38.9704 35.1979 39.0424 35.5179 39.1864 35.7899C39.3384 36.0539 39.5384 36.2579 39.7864 36.4019C40.0344 36.5459 40.3144 36.6179 40.6264 36.6179ZM49.3417 31.5059C49.8537 31.5059 50.3097 31.6099 50.7097 31.8179C51.1177 32.0179 51.4377 32.3299 51.6697 32.7539C51.9017 33.1699 52.0177 33.7059 52.0177 34.3619V38.0579H50.1457V34.6499C50.1457 34.1299 50.0297 33.7459 49.7977 33.4979C49.5737 33.2499 49.2537 33.1259 48.8377 33.1259C48.5417 33.1259 48.2737 33.1899 48.0337 33.3179C47.8017 33.4379 47.6177 33.6259 47.4817 33.8819C47.3537 34.1379 47.2897 34.4659 47.2897 34.8659V38.0579H45.4177V31.6019H47.2057V33.3899L46.8697 32.8499C47.1017 32.4179 47.4337 32.0859 47.8657 31.8539C48.2977 31.6219 48.7897 31.5059 49.3417 31.5059ZM57.6386 31.5059C58.1506 31.5059 58.6066 31.6099 59.0066 31.8179C59.4146 32.0179 59.7346 32.3299 59.9666 32.7539C60.1986 33.1699 60.3146 33.7059 60.3146 34.3619V38.0579H58.4426V34.6499C58.4426 34.1299 58.3266 33.7459 58.0946 33.4979C57.8706 33.2499 57.5506 33.1259 57.1346 33.1259C56.8386 33.1259 56.5706 33.1899 56.3306 33.3179C56.0986 33.4379 55.9146 33.6259 55.7786 33.8819C55.6506 34.1379 55.5866 34.4659 55.5866 34.8659V38.0579H53.7146V31.6019H55.5026V33.3899L55.1666 32.8499C55.3986 32.4179 55.7306 32.0859 56.1626 31.8539C56.5946 31.6219 57.0866 31.5059 57.6386 31.5059ZM65.2623 38.1539C64.5263 38.1539 63.8783 38.0099 63.3183 37.7219C62.7663 37.4339 62.3383 37.0419 62.0343 36.5459C61.7303 36.0419 61.5783 35.4699 61.5783 34.8299C61.5783 34.1819 61.7263 33.6099 62.0223 33.1139C62.3263 32.6099 62.7383 32.2179 63.2583 31.9379C63.7783 31.6499 64.3663 31.5059 65.0223 31.5059C65.6543 31.5059 66.2223 31.6419 66.7263 31.9139C67.2383 32.1779 67.6423 32.5619 67.9383 33.0659C68.2343 33.5619 68.3823 34.1579 68.3823 34.8539C68.3823 34.9259 68.3783 35.0099 68.3703 35.1059C68.3623 35.1939 68.3543 35.2779 68.3463 35.3579H63.1023V34.2659H67.3623L66.6423 34.5899C66.6423 34.2539 66.5743 33.9619 66.4383 33.7139C66.3023 33.4659 66.1143 33.2739 65.8743 33.1379C65.6343 32.9939 65.3543 32.9219 65.0343 32.9219C64.7143 32.9219 64.4303 32.9939 64.1823 33.1379C63.9423 33.2739 63.7543 33.4699 63.6183 33.7259C63.4823 33.9739 63.4143 34.2699 63.4143 34.6139V34.9019C63.4143 35.2539 63.4903 35.5659 63.6423 35.8379C63.8023 36.1019 64.0223 36.3059 64.3023 36.4499C64.5903 36.5859 64.9263 36.6539 65.3103 36.6539C65.6543 36.6539 65.9543 36.6019 66.2103 36.4979C66.4743 36.3939 66.7143 36.2379 66.9303 36.0299L67.9263 37.1099C67.6303 37.4459 67.2583 37.7059 66.8103 37.8899C66.3623 38.0659 65.8463 38.1539 65.2623 38.1539ZM72.7486 38.1539C72.0526 38.1539 71.4326 38.0139 70.8886 37.7339C70.3446 37.4459 69.9166 37.0499 69.6046 36.5459C69.3006 36.0419 69.1486 35.4699 69.1486 34.8299C69.1486 34.1819 69.3006 33.6099 69.6046 33.1139C69.9166 32.6099 70.3446 32.2179 70.8886 31.9379C71.4326 31.6499 72.0526 31.5059 72.7486 31.5059C73.4286 31.5059 74.0206 31.6499 74.5246 31.9379C75.0286 32.2179 75.4006 32.6219 75.6406 33.1499L74.1886 33.9299C74.0206 33.6259 73.8086 33.4019 73.5526 33.2579C73.3046 33.1139 73.0326 33.0419 72.7366 33.0419C72.4166 33.0419 72.1286 33.1139 71.8726 33.2579C71.6166 33.4019 71.4126 33.6059 71.2606 33.8699C71.1166 34.1339 71.0446 34.4539 71.0446 34.8299C71.0446 35.2059 71.1166 35.5259 71.2606 35.7899C71.4126 36.0539 71.6166 36.2579 71.8726 36.4019C72.1286 36.5459 72.4166 36.6179 72.7366 36.6179C73.0326 36.6179 73.3046 36.5499 73.5526 36.4139C73.8086 36.2699 74.0206 36.0419 74.1886 35.7299L75.6406 36.5219C75.4006 37.0419 75.0286 37.4459 74.5246 37.7339C74.0206 38.0139 73.4286 38.1539 72.7486 38.1539ZM79.4522 38.1539C78.6922 38.1539 78.1002 37.9619 77.6762 37.5779C77.2522 37.1859 77.0402 36.6059 77.0402 35.8379V30.1739H78.9122V35.8139C78.9122 36.0859 78.9842 36.2979 79.1282 36.4499C79.2722 36.5939 79.4682 36.6659 79.7162 36.6659C80.0122 36.6659 80.2642 36.5859 80.4722 36.4259L80.9762 37.7459C80.7842 37.8819 80.5522 37.9859 80.2802 38.0579C80.0162 38.1219 79.7402 38.1539 79.4522 38.1539ZM76.0442 33.1859V31.7459H80.5202V33.1859H76.0442Z" fill="#EDBA27"/>
<defs>
<radialGradient id="paint0_radial_1057_12627" cx="0" cy="0" r="1" gradientUnits="userSpaceOnUse" gradientTransform="translate(41.0563 11.8359) rotate(90) scale(7.53191 131.519)">
<stop stop-color="#353945" stop-opacity="0"/>
<stop offset="1" stop-color="#353945"/>
</radialGradient>
</defs>
</svg>
